<svg width="19" height="20" viewBox="0 0 19 20" fill="none" xmlns="http://www.w3.org/2000/svg">
<path d="M14.0577 1.56667L12.7642 2.84416L12.1115 3.48887L12.8731 4.00039C13.623 4.50403 14.242 5.16498 14.6911 5.93385L14.9083 6.30556H15.3388H17.75V7.02778H16.1488H15.2749L15.4074 7.8915C15.4618 8.24617 15.5 8.56844 15.5 8.88889V10V10.75H16.25H17.75V11.4722H16.25H15.5V12.2222V13.3333C15.5 13.6538 15.4618 13.976 15.4074 14.3307L15.2749 15.1944H16.1488H17.75V15.9167H15.3388H14.9098L14.6923 16.2864C13.6517 18.0553 11.7214 19.25 9.5 19.25C7.2786 19.25 5.34826 18.0553 4.30769 16.2864L4.0902 15.9167H3.66125H1.25V15.1944H2.85125H3.72508L3.59258 14.3307C3.53817 13.976 3.5 13.6538 3.5 13.3333V12.2222V11.4722H2.75H1.25V10.75H2.75H3.5V10V8.88889C3.5 8.56844 3.53817 8.24617 3.59258 7.8915L3.72508 7.02778H2.85125H1.25V6.30556H3.66125H4.09173L4.30886 5.93385C4.75822 5.16456 5.37826 4.50234 6.11952 3.99778L6.8708 3.4864L6.22617 2.84579L4.94065 1.56831L5.46246 1.05294L7.38795 2.94594L7.68493 3.2379L8.08976 3.14017C8.54015 3.03143 9.00984 2.97222 9.5 2.97222C9.98958 2.97222 10.4605 3.03129 10.9251 3.14103L11.3291 3.23646L11.6245 2.94473L13.5387 1.05413L14.0577 1.56667ZM11.75 15.1944H12.5V14.4444V12.2222V11.4722H11.75H7.25H6.5V12.2222V14.4444V15.1944H7.25H11.75ZM11.75 10.75H12.5V10V7.77778V7.02778H11.75H7.25H6.5V7.77778V10V10.75H7.25H11.75Z" stroke="#9460C8" stroke-width="1.5"/>
</svg>
