<svg width="26" height="26" viewBox="0 0 26 26" fill="none" xmlns="http://www.w3.org/2000/svg">
<path d="M17.1374 4.33697C18.3871 3.08729 20.4132 3.08729 21.6629 4.33697C22.9126 5.58664 22.9126 7.61277 21.6629 8.86245L16.8629 13.6624C15.6132 14.9121 13.5871 14.9121 12.3374 13.6624C11.7126 13.0376 10.6995 13.0376 10.0747 13.6624C9.44985 14.2873 9.44985 15.3004 10.0747 15.9252C12.574 18.4245 16.6263 18.4245 19.1257 15.9252L23.9257 11.1252C26.425 8.62583 26.425 4.57358 23.9257 2.07422C21.4263 -0.425132 17.374 -0.425132 14.8747 2.07422L12.4747 4.47422C11.8498 5.09906 11.8498 6.11213 12.4747 6.73697C13.0995 7.3618 14.1126 7.3618 14.7374 6.73697L17.1374 4.33697Z" fill="black" fill-opacity="0.6"/>
<path d="M9.13745 12.337C10.3871 11.0873 12.4133 11.0873 13.6629 12.337C14.2878 12.9618 15.3008 12.9618 15.9257 12.337C16.5505 11.7121 16.5505 10.6991 15.9257 10.0742C13.4263 7.57487 9.37407 7.57487 6.87471 10.0742L2.07471 14.8742C-0.424644 17.3736 -0.424644 21.4258 2.07471 23.9252C4.57407 26.4245 8.62632 26.4245 11.1257 23.9252L13.5257 21.5252C14.1505 20.9004 14.1505 19.8873 13.5257 19.2624C12.9008 18.6376 11.8878 18.6376 11.2629 19.2624L8.86294 21.6625C7.61326 22.9121 5.58713 22.9121 4.33745 21.6625C3.08778 20.4128 3.08778 18.3866 4.33745 17.137L9.13745 12.337Z" fill="black" fill-opacity="0.6"/>
</svg>
