<svg width="1390" height="146" viewBox="0 0 1390 146" fill="none" xmlns="http://www.w3.org/2000/svg">
<path d="M0.708582 143V2.99999H61.3086C73.8419 2.99999 84.6419 5.06666 93.7086 9.19999C102.775 13.2 109.775 19 114.709 26.6C119.642 34.2 122.109 43.2667 122.109 53.8C122.109 64.2 119.642 73.2 114.709 80.8C109.775 88.4 102.775 94.2667 93.7086 98.4C84.6419 102.4 73.8419 104.4 61.3086 104.4H18.7086L33.1086 89.8V143H0.708582ZM33.1086 93.4L18.7086 78H59.5086C69.5086 78 76.9753 75.8667 81.9086 71.6C86.8419 67.3333 89.3086 61.4 89.3086 53.8C89.3086 46.0667 86.8419 40.0667 81.9086 35.8C76.9753 31.5333 69.5086 29.4 59.5086 29.4H18.7086L33.1086 14V93.4ZM170.64 59.4H238.04V84.6H170.64V59.4ZM173.04 117H249.24V143H140.84V2.99999H246.64V29H173.04V117ZM300.42 59.4H367.82V84.6H300.42V59.4ZM302.82 117H379.02V143H270.62V2.99999H376.42V29H302.82V117ZM429.399 111L427.599 73.6L494.599 2.99999H530.599L470.199 68L452.199 87.2L429.399 111ZM400.399 143V2.99999H432.599V143H400.399ZM496.199 143L446.399 82L467.599 59L533.999 143H496.199ZM519.201 143L581.601 2.99999H613.601L676.201 143H642.201L591.001 19.4H603.801L552.401 143H519.201ZM550.401 113L559.001 88.4H631.001L639.801 113H550.401ZM686.326 143V2.99999H754.726C772.326 2.99999 785.526 6.33332 794.326 13C803.259 19.6667 807.726 28.4667 807.726 39.4C807.726 46.7333 805.926 53.1333 802.326 58.6C798.726 63.9333 793.792 68.0667 787.526 71C781.259 73.9333 774.059 75.4 765.926 75.4L769.726 67.2C778.526 67.2 786.326 68.6667 793.126 71.6C799.926 74.4 805.192 78.6 808.926 84.2C812.792 89.8 814.726 96.6667 814.726 104.8C814.726 116.8 809.992 126.2 800.526 133C791.059 139.667 777.126 143 758.726 143H686.326ZM718.526 118.6H756.326C764.726 118.6 771.059 117.267 775.326 114.6C779.726 111.8 781.926 107.4 781.926 101.4C781.926 95.5333 779.726 91.2 775.326 88.4C771.059 85.4667 764.726 84 756.326 84H716.126V60.4H750.726C758.592 60.4 764.592 59.0667 768.726 56.4C772.992 53.6 775.126 49.4 775.126 43.8C775.126 38.3333 772.992 34.2667 768.726 31.6C764.592 28.8 758.592 27.4 750.726 27.4H718.526V118.6ZM834.855 143V2.99999H867.255V116.6H937.455V143H834.855ZM1016.81 145.4C1005.75 145.4 995.482 143.6 986.015 140C976.682 136.4 968.548 131.333 961.615 124.8C954.815 118.267 949.482 110.6 945.615 101.8C941.882 93 940.015 83.4 940.015 73C940.015 62.6 941.882 53 945.615 44.2C949.482 35.4 954.882 27.7333 961.815 21.2C968.748 14.6667 976.882 9.59999 986.215 5.99999C995.548 2.39999 1005.68 0.599998 1016.61 0.599998C1027.68 0.599998 1037.81 2.39999 1047.01 5.99999C1056.35 9.59999 1064.41 14.6667 1071.21 21.2C1078.15 27.7333 1083.55 35.4 1087.41 44.2C1091.28 52.8667 1093.21 62.4667 1093.21 73C1093.21 83.4 1091.28 93.0667 1087.41 102C1083.55 110.8 1078.15 118.467 1071.21 125C1064.41 131.4 1056.35 136.4 1047.01 140C1037.81 143.6 1027.75 145.4 1016.81 145.4ZM1016.61 117.8C1022.88 117.8 1028.61 116.733 1033.81 114.6C1039.15 112.467 1043.81 109.4 1047.81 105.4C1051.81 101.4 1054.88 96.6667 1057.01 91.2C1059.28 85.7333 1060.41 79.6667 1060.41 73C1060.41 66.3333 1059.28 60.2667 1057.01 54.8C1054.88 49.3333 1051.81 44.6 1047.81 40.6C1043.95 36.6 1039.35 33.5333 1034.01 31.4C1028.68 29.2667 1022.88 28.2 1016.61 28.2C1010.35 28.2 1004.55 29.2667 999.215 31.4C994.015 33.5333 989.415 36.6 985.415 40.6C981.415 44.6 978.282 49.3333 976.015 54.8C973.882 60.2667 972.815 66.3333 972.815 73C972.815 79.5333 973.882 85.6 976.015 91.2C978.282 96.6667 981.348 101.4 985.215 105.4C989.215 109.4 993.882 112.467 999.215 114.6C1004.55 116.733 1010.35 117.8 1016.61 117.8ZM1180.16 145.4C1169.36 145.4 1159.3 143.667 1149.96 140.2C1140.76 136.6 1132.76 131.533 1125.96 125C1119.16 118.467 1113.83 110.8 1109.96 102C1106.23 93.2 1104.36 83.5333 1104.36 73C1104.36 62.4667 1106.23 52.8 1109.96 44C1113.83 35.2 1119.16 27.5333 1125.96 21C1132.9 14.4667 1140.96 9.46666 1150.16 5.99999C1159.36 2.39999 1169.43 0.599998 1180.36 0.599998C1192.5 0.599998 1203.43 2.73333 1213.16 7C1223.03 11.1333 1231.3 17.2667 1237.96 25.4L1217.16 44.6C1212.36 39.1333 1207.03 35.0667 1201.16 32.4C1195.3 29.6 1188.9 28.2 1181.96 28.2C1175.43 28.2 1169.43 29.2667 1163.96 31.4C1158.5 33.5333 1153.76 36.6 1149.76 40.6C1145.76 44.6 1142.63 49.3333 1140.36 54.8C1138.23 60.2667 1137.16 66.3333 1137.16 73C1137.16 79.6667 1138.23 85.7333 1140.36 91.2C1142.63 96.6667 1145.76 101.4 1149.76 105.4C1153.76 109.4 1158.5 112.467 1163.96 114.6C1169.43 116.733 1175.43 117.8 1181.96 117.8C1188.9 117.8 1195.3 116.467 1201.16 113.8C1207.03 111 1212.36 106.8 1217.16 101.2L1237.96 120.4C1231.3 128.533 1223.03 134.733 1213.16 139C1203.43 143.267 1192.43 145.4 1180.16 145.4ZM1284.44 111L1282.64 73.6L1349.64 2.99999H1385.64L1325.24 68L1307.24 87.2L1284.44 111ZM1255.44 143V2.99999H1287.64V143H1255.44ZM1351.24 143L1301.44 82L1322.64 59L1389.04 143H1351.24Z" fill="#9461C8"/>
</svg>
