<svg width="14" height="14" viewBox="0 0 14 14" fill="none" xmlns="http://www.w3.org/2000/svg">
<path fill-rule="evenodd" clip-rule="evenodd" d="M6.99961 13.4016C10.5342 13.4016 13.3996 10.5362 13.3996 7.00156C13.3996 3.46694 10.5342 0.601562 6.99961 0.601562C3.46499 0.601562 0.599609 3.46694 0.599609 7.00156C0.599609 10.5362 3.46499 13.4016 6.99961 13.4016ZM6.64337 4.73592C6.39788 4.57227 6.08225 4.55701 5.82212 4.69622C5.562 4.83544 5.39961 5.10653 5.39961 5.40156V8.60156C5.39961 8.8966 5.562 9.16769 5.82212 9.3069C6.08225 9.44612 6.39788 9.43086 6.64337 9.26721L9.04337 7.6672C9.26593 7.51883 9.39961 7.26905 9.39961 7.00156C9.39961 6.73408 9.26593 6.4843 9.04337 6.33592L6.64337 4.73592Z" fill="#059669"/>
</svg>
