<svg width="20" height="18" viewBox="0 0 20 18" fill="none" xmlns="http://www.w3.org/2000/svg">
<path fill-rule="evenodd" clip-rule="evenodd" d="M7.90652 1.71947C8.82405 0.0883031 11.1726 0.0883023 12.0901 1.71947L18.7864 13.6241C19.6864 15.224 18.5302 17.2007 16.6947 17.2007H3.30193C1.46635 17.2007 0.310235 15.224 1.21015 13.6241L7.90652 1.71947ZM11.1982 13.6009C11.1982 14.2636 10.6609 14.8009 9.99819 14.8009C9.33545 14.8009 8.79819 14.2636 8.79819 13.6009C8.79819 12.9381 9.33545 12.4009 9.99819 12.4009C10.6609 12.4009 11.1982 12.9381 11.1982 13.6009ZM9.99819 4.00088C9.33545 4.00088 8.79819 4.53814 8.79819 5.20088V8.80088C8.79819 9.46362 9.33545 10.0009 9.99819 10.0009C10.6609 10.0009 11.1982 9.46362 11.1982 8.80088V5.20088C11.1982 4.53814 10.6609 4.00088 9.99819 4.00088Z" fill="white"/>
</svg>
