<svg width="20" height="18" viewBox="0 0 20 18" fill="none" xmlns="http://www.w3.org/2000/svg">
<path fill-rule="evenodd" clip-rule="evenodd" d="M12.0915 1.71947C11.174 0.0883031 8.8255 0.0883023 7.90797 1.71947L1.21161 13.6241C0.311689 15.224 1.4678 17.2007 3.30338 17.2007H16.6961C18.5317 17.2007 19.6878 15.224 18.7879 13.6241L12.0915 1.71947ZM8.79985 13.6009C8.79985 14.2636 9.33711 14.8009 9.99985 14.8009C10.6626 14.8009 11.1999 14.2636 11.1999 13.6009C11.1999 12.9381 10.6626 12.4009 9.99985 12.4009C9.33711 12.4009 8.79985 12.9381 8.79985 13.6009ZM9.99985 4.00088C10.6626 4.00088 11.1999 4.53814 11.1999 5.20088V8.80088C11.1999 9.46362 10.6626 10.0009 9.99985 10.0009C9.33711 10.0009 8.79985 9.46362 8.79985 8.80088V5.20088C8.79985 4.53814 9.33711 4.00088 9.99985 4.00088Z" fill="#D97706"/>
</svg>
